<!DOCTYPE svg PUBLIC "-//W3C//DTD SVG 1.1//EN" "http://www.w3.org/Graphics/SVG/1.1/DTD/svg11.dtd">
<!-- Uploaded to: SVG Repo, www.svgrepo.com, Transformed by: SVG Repo Mixer Tools -->
<svg version="1.1" id="Layer_1" xmlns="http://www.w3.org/2000/svg" xmlns:xlink="http://www.w3.org/1999/xlink" viewBox="0 0 498.4 498.4" xml:space="preserve" width="800px" height="800px" fill="#000000" transform="matrix(-1, 0, 0, 1, 0, 0)">
<g id="SVGRepo_bgCarrier" stroke-width="0"/>
<g id="SVGRepo_tracerCarrier" stroke-linecap="round" stroke-linejoin="round"/>
<g id="SVGRepo_iconCarrier"> <path style="fill:#1740a1;" d="M98.4,432c-11.2,11.2-28.8,11.2-39.2,0l0,0c-11.2-11.2-11.2-28.8,0-39.2l200-200 c11.2-11.2,28.8-11.2,39.2,0l0,0c11.2,11.2,11.2,28.8,0,39.2L98.4,432z"/> <path style="fill:#0c526a;" d="M298.4,192.8L298.4,192.8c11.2,11.2,11.2,28.8,0,39.2l-200,200c-11.2,11.2-28.8,11.2-39.2,0l0,0"/> <path style="fill:#2f95f4;" d="M92.8,481.6c-12.8,12.8-32.8,12.8-45.6,0L9.6,444c-12.8-12.8-12.8-32.8,0-45.6l0,0 c12.8-12.8,32.8-12.8,45.6,0L92.8,436C105.6,448.8,105.6,468.8,92.8,481.6L92.8,481.6z"/> <path style="fill:#0a49db;" d="M55.2,398.4L92.8,436c12.8,12.8,12.8,32.8,0,45.6l0,0c-12.8,12.8-32.8,12.8-45.6,0"/> <path style="fill:#2f95f4;" d="M427.2,267.2c-33.6,33.6-69.6,15.2-103.2-18.4l-82.4-82.4c-33.6-33.6-51.2-69.6-18.4-103.2l14.4-14.4 c33.6-33.6,69.6-15.2,103.2,18.4l82.4,82.4c33.6,33.6,51.2,69.6,18.4,103.2L427.2,267.2z"/> <g> <path style="fill:#0a49db;" d="M340.8,68l82.4,82.4c33.6,33.6,51.2,69.6,18.4,103.2L427.2,268c-33.6,33.6-69.6,15.2-103.2-18.4"/> </g> <path style="fill:#2f95f4;" d="M205.6,121.6c-6.4,6.4-16.8,6.4-23.2,0l0,0c-6.4-6.4-6.4-16.8,0-23.2L272,8c6.4-6.4,16.8-6.4,23.2,0 l0,0c6.4,6.4,6.4,16.8,0,23.2L205.6,121.6z"/> <path style="fill:#0a49db;" d="M295.2,8L295.2,8c6.4,6.4,6.4,16.8,0,23.2l-89.6,90.4c-6.4,6.4-16.8,6.4-23.2,0l0,0"/> <path style="fill:#2f95f4;" d="M392.8,308.8c-6.4,6.4-16.8,6.4-23.2,0l0,0c-6.4-6.4-6.4-16.8,0-23.2l89.6-89.6 c6.4-6.4,16.8-6.4,23.2,0l0,0c6.4,6.4,6.4,16.8,0,23.2L392.8,308.8z"/> <g> <path style="fill:#0a49db;" d="M483.2,196L483.2,196c6.4,6.4,6.4,16.8,0,23.2l-90.4,89.6c-6.4,6.4-16.8,6.4-23.2,0l0,0"/> <path style="fill:#0a49db;" d="M309.6,253.6c-5.6,5.6-15.2,5.6-20.8,0l-50.4-50.4c-5.6-5.6-5.6-15.2,0-20.8l0,0 c5.6-5.6,15.2-5.6,20.8,0l50.4,50.4C315.2,238.4,315.2,248,309.6,253.6L309.6,253.6z"/> </g> <rect x="321.6" y="407.2" style="fill:#003399;" width="168" height="72"/> <g> <polyline style="fill:#003399;" points="321.6,407.2 489.6,407.2 489.6,479.2 "/> <path style="fill:#003399;" d="M497.6,488.8c0,3.2-2.4,6.4-6.4,6.4H320c-3.2,0-6.4-2.4-6.4-6.4v-4c0-3.2,2.4-6.4,6.4-6.4h172 c3.2,0,6.4,2.4,6.4,6.4v4H497.6z"/> <path style="fill:#003399;" d="M497.6,400.8c0,3.2-2.4,6.4-6.4,6.4H320c-3.2,0-6.4-2.4-6.4-6.4v-4c0-3.2,2.4-6.4,6.4-6.4h172 c3.2,0,6.4,2.4,6.4,6.4v4H497.6z"/> </g> </g>
</svg>